<?xml version="1.0" encoding="utf-8"?>
<!-- Generator: Adobe Illustrator 22.0.1, SVG Export Plug-In . SVG Version: 6.00 Build 0)  -->
<svg version="1.1" id="Layer_1" xmlns="http://www.w3.org/2000/svg" xmlns:xlink="http://www.w3.org/1999/xlink" x="0px" y="0px"
	 viewBox="0 0 136 136" style="enable-background:new 0 0 136 136;" xml:space="preserve">
<style type="text/css">
	.st0{fill:#FFFFFF;stroke:#14488E;stroke-dasharray:4,2;}
	.st1{fill:#14488E;}
	.st2{fill:#FFFFFF;}
</style>
<circle id="Ellipse_5_copy_12" class="st0" cx="67.5" cy="67.5" r="57.5"/>
<circle id="Ellipse_5_copy_4" class="st1" cx="67.5" cy="67.5" r="49.5"/>
<g>
	<g>
		<g>
			<path class="st2" d="M92.6,62.8h-5c-0.5,0-1,0.4-1,1c0,0.5,0.4,1,1,1h5c0.5,0,0.9,0.4,0.9,0.9V69H81v-0.3c0-0.6-0.3-1.2-0.9-1.5
				l-3.8-2.4h7.5c0.5,0,1-0.4,1-1c0-0.5-0.4-1-1-1h-9.5l-1.7-2.7v-2.2h3.3c0.8,0,1.5-0.5,1.9-1.2c0.4-0.9,0.3-1.9-0.3-2.6l-4.8-5.6
				v-1.7c0-0.4-0.1-0.8-0.4-1c-0.1-0.1-0.1-0.1-0.2-0.2v-2.3l2.3-4.1c0.2-0.3,0.2-0.8-0.1-1.1L69,31.2c-0.2-0.2-0.5-0.4-0.8-0.4
				s-0.6,0.1-0.8,0.4l-5.3,6.9c-0.2,0.3-0.3,0.7-0.1,1.1l2.3,4.1v2.3c-0.4,0.3-0.6,0.7-0.7,1.2v1.7l-4.8,5.6
				c-0.6,0.7-0.7,1.7-0.3,2.6c0.4,0.8,1.1,1.2,1.9,1.2h3.3v2.2l-1.9,2.7H43.4c-1.6,0-2.9,1.3-2.9,2.9v28.6c0,1.6,1.3,2.9,2.9,2.9
				h49.3c1.6,0,2.9-1.3,2.9-2.9V65.7C95.5,64.1,94.2,62.8,92.6,62.8z M72.6,51.5l3.3,3.9c0.1,0.2,0.1,0.4,0.1,0.4
				c0,0.1-0.1,0.2-0.1,0.2l0,0h-3.3V51.5z M60.4,56L60.4,56c0,0-0.1-0.1-0.1-0.2c0-0.1-0.1-0.3,0.1-0.4l3.3-3.9V56H60.4L60.4,56z
				 M74.9,66.2l4.1,2.6v5l-4.1-1.9V66.2z M68.1,39.6c0.2,0,0.3,0.1,0.3,0.3s-0.1,0.3-0.3,0.3c-0.2,0-0.3-0.1-0.3-0.3
				S68,39.6,68.1,39.6z M64,38.9l3.1-4.1V38c-0.8,0.4-1.3,1.1-1.3,2c0,1.2,1,2.3,2.3,2.3s2.3-1,2.3-2.3c0-0.9-0.5-1.7-1.3-2v-3.2
				l3.1,4.1l-2.1,3.7C70,42.7,70,42.9,70,43.1v2.3h-3.8v-2.3c0-0.2,0-0.3-0.1-0.5L64,38.9z M63,64.5L63,64.5L63,64.5l2.4-3.5
				c0.1-0.2,0.2-0.4,0.2-0.6V47.3h5v13.1c0,0.2,0.1,0.4,0.1,0.5l2.2,3.5v7.7H63V64.5z M70.7,74.1v1.1c0,0.2-0.1,0.3-0.3,0.3H66
				c-0.2,0-0.3-0.1-0.3-0.3v-1.1H70.7z M42.4,65.7c0-0.5,0.4-0.9,0.9-0.9h16.3l-3.8,2.4c-0.5,0.3-0.9,0.9-0.9,1.5V69H42.4V65.7z
				 M61.1,66.2V72L57,74.2v-5.4L61.1,66.2z M92.6,95.2H43.4c-0.5,0-0.9-0.4-0.9-0.9V71H55v3.8c0,0.6,0.3,1.1,0.8,1.4
				c0.3,0.2,0.5,0.2,0.8,0.2s0.5-0.1,0.8-0.2l4.2-2.2c0.1,0.1,0.3,0.1,0.5,0.1h1.6v1.1c0,1,0.7,1.9,1.6,2.2v7c0,0.5-0.4,0.8-0.8,0.8
				s-0.8-0.4-0.8-0.8c0-0.5-0.4-1-1-1s-1,0.4-1,1c0,1.5,1.2,2.8,2.8,2.8c1.5,0,2.8-1.2,2.8-2.8v-6.9h1.9v6.9c0,1.5,1.2,2.8,2.8,2.8
				s2.8-1.2,2.8-2.8c0-0.5-0.4-1-1-1c-0.5,0-1,0.4-1,1c0,0.5-0.4,0.8-0.8,0.8s-1-0.4-1-0.8v-7c0.9-0.3,1.6-1.2,1.6-2.2v-1.1H74
				c0.2,0,0.4-0.1,0.6-0.2l4.2,1.9c0.2,0.1,0.4,0.1,0.7,0.1c0.3,0,0.6-0.1,0.9-0.3c0.5-0.3,0.7-0.8,0.7-1.3V71h12.6v23.3l0,0
				C93.6,94.7,93.1,95.2,92.6,95.2z"/>
			<path class="st2" d="M78,86.1c-0.4-0.4-1-0.3-1.4,0.1s-0.3,1,0.1,1.4c0.6,0.6,0.9,1.3,0.9,2.1c0,1.6-1.3,2.9-2.9,2.9
				c-0.7,0-1.4-0.3-2-0.8c0.2-0.5,0.2-1,0.2-1.5s-0.4-1-1-1s-1,0.4-1,1c0,0.7-0.3,1.4-0.7,1.9l0,0l0,0c-0.5,0.6-1.3,0.9-2.1,1l0,0
				l0,0l0,0l0,0l0,0l0,0l0,0l0,0l0,0l0,0l0,0l0,0l0,0l0,0l0,0l0,0l0,0c-1.4-0.2-2.5-1.4-2.5-2.9c0-0.5-0.4-1-1-1c-0.5,0-1,0.4-1,1
				s0.1,1.1,0.3,1.6c-0.5,0.4-1.2,0.7-1.9,0.7c-1.6,0-2.9-1.3-2.9-2.9c0-0.8,0.3-1.5,0.8-2c0.4-0.4,0.4-1,0-1.4s-1-0.4-1.4,0
				c-0.9,0.9-1.4,2.1-1.4,3.4c0,2.7,2.2,4.9,4.9,4.9c1.1,0,2.1-0.3,2.9-0.9c0.8,0.9,1.9,1.4,3.1,1.6l0,0c0,0,0,0,0.1,0l0,0
				c0,0,0,0,0.1,0l0,0l0,0l0,0l0,0l0,0l0,0l0,0l0,0l0,0l0,0c0,0,0,0,0.1,0c0,0,0,0,0.1,0l0,0c1.4,0,2.7-0.7,3.6-1.6l0,0
				c0.8,0.6,1.9,1,3,1c2.7,0,4.9-2.2,4.9-4.9C79.6,88.3,79,87,78,86.1z"/>
			<path class="st2" d="M68,61.4c-1.2,0-2.3,1-2.3,2.3V69c0,1.2,1,2.3,2.3,2.3c1.2,0,2.3-1,2.3-2.3v-5.3
				C70.3,62.4,69.2,61.4,68,61.4z M68.3,69c0,0.2-0.1,0.3-0.3,0.3s-0.3-0.1-0.3-0.3v-5.3c0-0.2,0.1-0.3,0.3-0.3s0.3,0.1,0.3,0.3V69z
				"/>
			<circle class="st2" cx="45.2" cy="66.9" r="1"/>
			<circle class="st2" cx="48.7" cy="66.9" r="1"/>
			<circle class="st2" cx="52.1" cy="67" r="1"/>
			<path class="st2" d="M45.2,79.8H58c0.5,0,1-0.4,1-1s-0.4-1-1-1H45.2c-0.5,0-1,0.4-1,1S44.7,79.8,45.2,79.8z"/>
			<path class="st2" d="M45.2,83.8H47c0.5,0,1-0.4,1-1c0-0.5-0.4-1-1-1h-1.8c-0.5,0-1,0.4-1,1C44.3,83.3,44.7,83.8,45.2,83.8z"/>
			<path class="st2" d="M45.2,87.7H52c0.5,0,1-0.4,1-1s-0.4-1-1-1h-6.7c-0.5,0-1,0.4-1,1S44.7,87.7,45.2,87.7z"/>
			<path class="st2" d="M53.9,89.7h-8.7c-0.5,0-1,0.4-1,1c0,0.5,0.4,1,1,1h8.7c0.5,0,1-0.4,1-1C54.9,90.2,54.4,89.7,53.9,89.7z"/>
			<path class="st2" d="M58,81.8h-8.2c-0.5,0-1,0.4-1,1s0.4,1,1,1H58c0.5,0,1-0.4,1-1S58.6,81.8,58,81.8z"/>
			<path class="st2" d="M91,77.8H78.2c-0.5,0-1,0.4-1,1c0,0.5,0.4,1,1,1H91c0.5,0,1-0.4,1-1S91.6,77.8,91,77.8z"/>
			<path class="st2" d="M91,81.8h-1.8c-0.5,0-1,0.4-1,1s0.4,1,1,1H91c0.5,0,1-0.4,1-1S91.6,81.8,91,81.8z"/>
			<path class="st2" d="M91,85.7h-6.7c-0.5,0-1,0.4-1,1c0,0.5,0.4,1,1,1H91c0.5,0,1-0.4,1-1S91.6,85.7,91,85.7z"/>
			<path class="st2" d="M91,89.7h-8.7c-0.5,0-1,0.4-1,1c0,0.5,0.4,1,1,1H91c0.5,0,1-0.4,1-1C92,90.2,91.6,89.7,91,89.7z"/>
			<path class="st2" d="M78.2,83.8h8.2c0.5,0,1-0.4,1-1c0-0.5-0.4-1-1-1h-8.2c-0.5,0-1,0.4-1,1C77.3,83.3,77.7,83.8,78.2,83.8z"/>
		</g>
	</g>
</g>
</svg>
